<svg xmlns="http://www.w3.org/2000/svg" viewBox="0 0 64 64" width="512" height="512" class=""><g><g id="flat"><path d="M14,28A11,11,0,1,0,25,39,11,11,0,0,0,14,28Zm0,19a8,8,0,1,1,8-8A8,8,0,0,1,14,47Z" style="fill:#616161" data-original="#616161"></path><path d="M50,28A11,11,0,1,0,61,39,11,11,0,0,0,50,28Zm0,19a8,8,0,1,1,8-8A8,8,0,0,1,50,47Z" style="fill:#616161" data-original="#616161"></path><path d="M49.782,38.206,43.409,20H47V18H42a1,1,0,0,0-.944,1.33l.632,1.808c-4.612.855-11.772,5.606-14.337,7.388l-3.417-8.885-1.868.718L26.159,31H24a1,1,0,0,0-.625.219l-10,8A1,1,0,0,0,14,41H29v-.177c2.67-.892,5.18-5.229,8.111-10.726a28.412,28.412,0,0,1,2.6-4.39,6.127,6.127,0,0,1,3.04-1.544L48.056,39.33a1,1,0,0,0,.628.618l3,1,.632-1.9ZM16.851,39l7.5-6h2.578l.071.186V39Zm18.5-9.845C33.673,32.294,31.04,37.222,29,38.612V33a1,1,0,0,0-.066-.359l-.843-2.192a71.531,71.531,0,0,1,10.054-5.988A30.026,30.026,0,0,0,35.347,29.155Z" style="fill:#3DCA2D" data-original="#E86702" class="active-path" data-old_color="#E86702"></path><path d="M28,43a3,3,0,1,1,3-3A3,3,0,0,1,28,43Zm0-4a1,1,0,1,0,1,1A1,1,0,0,0,28,39Z" style="fill:#c4c4c2" data-original="#C4C4C2" class=""></path><path d="M34,48H31a1,1,0,0,1-.919-.606l-3-7,1.838-.788L31.659,46H34Z" style="fill:#d1d1cf" data-original="#D1D1CF" class=""></path><polygon points="23.934 19.641 22.066 20.359 22.666 21.919 24.694 21.617 23.934 19.641" style="fill:#db5800" data-original="#DB5800" class=""></polygon><path d="M44.34,20H47V18H44.273A3.181,3.181,0,0,0,44.34,20Z" style="fill:#db5800" data-original="#DB5800" class=""></path><circle cx="47" cy="19" r="2" style="fill:#616161" data-original="#616161"></circle><path d="M19,18v.515a2.4,2.4,0,0,0,1.329,2.149h0a2.4,2.4,0,0,0,1.414.23l5.337-.763a1.071,1.071,0,0,0,.92-1.06h0A1.072,1.072,0,0,0,26.929,18Z" style="fill:#616161" data-original="#616161"></path></g></g> </svg>