<?xml version="1.0"?>
<svg xmlns="http://www.w3.org/2000/svg" viewBox="0 0 64 64" width="512" height="512"><g id="flat"><polygon points="38 31 32 31.8 32 57 38 59 38 31" style="fill:#98a1a1"/><polygon points="54 31 60 31.8 60 57 54 59 54 31" style="fill:#98a1a1"/><polygon points="10 33 4 32.2 4 7 10 5 10 33" style="fill:#98a1a1"/><polygon points="26 33 32 32.2 32 7 26 5 26 33" style="fill:#98a1a1"/><rect x="15" y="43" width="6" height="18" style="fill:#98a1a1"/><rect x="43" y="3" width="6" height="18" style="fill:#98a1a1"/><polygon points="32 35 23 37 13 37 4 35 4 31 14 33 22 33 32 31 32 35" style="fill:#394d5c"/><polygon points="22 33 14 33 16 30 16 16 20 16 20 30 22 33" style="fill:#98a1a1"/><polygon points="16 16 10 14 10 18 16 20 16 16" style="fill:#394d5c"/><polygon points="20 16 26 14 26 18 20 20 20 16" style="fill:#394d5c"/><polygon points="15 3 10 5 10 10 15 8 21 8 26 10 26 5 21 3 15 3" style="fill:#394d5c"/><rect x="4" y="14" width="3" height="2" style="fill:#394d5c"/><rect x="4" y="10" width="3" height="2" style="fill:#394d5c"/><rect x="4" y="18" width="3" height="2" style="fill:#394d5c"/><rect x="4" y="22" width="3" height="2" style="fill:#394d5c"/><rect x="4" y="26" width="3" height="2" style="fill:#394d5c"/><rect x="29" y="14" width="3" height="2" style="fill:#394d5c"/><rect x="29" y="10" width="3" height="2" style="fill:#394d5c"/><rect x="29" y="18" width="3" height="2" style="fill:#394d5c"/><rect x="29" y="22" width="3" height="2" style="fill:#394d5c"/><rect x="29" y="26" width="3" height="2" style="fill:#394d5c"/><rect x="13" y="37" width="10" height="6" style="fill:#142128"/><rect x="17" y="40" width="2" height="3" style="fill:#bfbfbf"/><polygon points="60 29 51 27 41 27 32 29 32 33 42 31 50 31 60 33 60 29" style="fill:#394d5c"/><polygon points="50 31 42 31 44 34 44 48 48 48 48 34 50 31" style="fill:#98a1a1"/><polygon points="44 48 38 50 38 46 44 44 44 48" style="fill:#394d5c"/><polygon points="48 48 54 50 54 46 48 44 48 48" style="fill:#394d5c"/><polygon points="43 61 38 59 38 54 43 56 49 56 54 54 54 59 49 61 43 61" style="fill:#394d5c"/><rect x="32" y="48" width="3" height="2" style="fill:#394d5c"/><rect x="32" y="52" width="3" height="2" style="fill:#394d5c"/><rect x="32" y="44" width="3" height="2" style="fill:#394d5c"/><rect x="32" y="40" width="3" height="2" style="fill:#394d5c"/><rect x="32" y="36" width="3" height="2" style="fill:#394d5c"/><rect x="57" y="48" width="3" height="2" style="fill:#394d5c"/><rect x="57" y="52" width="3" height="2" style="fill:#394d5c"/><rect x="57" y="44" width="3" height="2" style="fill:#394d5c"/><rect x="57" y="40" width="3" height="2" style="fill:#394d5c"/><rect x="57" y="36" width="3" height="2" style="fill:#394d5c"/><rect x="41" y="21" width="10" height="6" style="fill:#142128"/><rect x="45" y="21" width="2" height="3" style="fill:#bfbfbf"/></g></svg>
