<svg xmlns="http://www.w3.org/2000/svg" viewBox="0 0 64 64" width="512" height="512" class=""><g><g id="filled_outline" data-name="filled outline"><polygon points="48.023 49.414 43.293 44.707 44.707 43.293 49.437 48 48.023 49.414" style="fill:#c4c4c2" data-original="#C4C4C2" class=""></polygon><path d="M32,3A29,29,0,1,0,61,32,29,29,0,0,0,32,3Zm0,52A23,23,0,1,1,55,32,23,23,0,0,1,32,55Z" style="fill:#15B210" data-original="#4D4D4D" class="" data-old_color="#4D4D4D"></path><path d="M55,33V31H35.858c0-.021-.013-.041-.019-.062l16.58-9.572-1-1.732L34.85,29.2l-.05-.05,9.566-16.569-1.732-1-9.572,16.58c-.021-.006-.041-.014-.062-.019V9H31V28.142c-.021,0-.041.013-.062.019l-9.572-16.58-1.732,1L29.2,29.15l-.05.05L12.581,19.634l-1,1.732,16.58,9.572c-.006.021-.014.041-.019.062H9v2H28.142c0,.021.013.041.019.062l-16.58,9.572,1,1.732L29.15,34.8l.05.05L19.634,51.419l1.732,1,9.572-16.58c.021.006.041.014.062.019V55h2V35.858c.021,0,.041-.013.062-.019l9.572,16.58,1.732-1L34.8,34.85l.05-.05,16.569,9.566,1-1.732-16.58-9.572c.006-.021.014-.041.019-.062ZM34,32a2,2,0,1,1-2-2A2,2,0,0,1,34,32Z" style="fill:#c4c4c2" data-original="#C4C4C2" class=""></path><path d="M31,7a1,1,0,0,1-.831-1.555l2-3a1,1,0,1,1,1.664,1.11l-2,3A1,1,0,0,1,31,7Z" style="fill:#9A9A9A" data-original="#5C5C5C" class="active-path" data-old_color="#5C5C5C"></path><path d="M31,62a1,1,0,0,1-.831-1.555l2-3a1,1,0,1,1,1.664,1.11l-2,3A1,1,0,0,1,31,62Z" style="fill:#9A9A9A" data-original="#5C5C5C" class="active-path" data-old_color="#5C5C5C"></path><path d="M25.616,7.776a1,1,0,0,1-.929-1.369l1.332-3.35a1,1,0,1,1,1.859.738L26.546,7.146A1,1,0,0,1,25.616,7.776Z" style="fill:#9A9A9A" data-original="#5C5C5C" class="active-path" data-old_color="#5C5C5C"></path><path d="M37.052,61.574a1,1,0,0,1-.93-1.369l1.332-3.351a1,1,0,1,1,1.859.739l-1.332,3.35A1,1,0,0,1,37.052,61.574Z" style="fill:#9A9A9A" data-original="#5C5C5C" class="active-path" data-old_color="#5C5C5C"></path><path d="M20.513,9.654a1.07,1.07,0,0,1-.169-.014,1,1,0,0,1-.818-1.154l.607-3.553a1,1,0,1,1,1.971.336L21.5,8.822A1,1,0,0,1,20.513,9.654Z" style="fill:#9A9A9A" data-original="#5C5C5C" class="active-path" data-old_color="#5C5C5C"></path><path d="M42.883,59.9a.972.972,0,0,1-.169-.014,1,1,0,0,1-.818-1.154l.607-3.553a1,1,0,1,1,1.971.336l-.607,3.553A1,1,0,0,1,42.883,59.9Z" style="fill:#9A9A9A" data-original="#5C5C5C" class="active-path" data-old_color="#5C5C5C"></path><path d="M15.907,12.554a1,1,0,0,1-1-.96l-.144-3.6a1,1,0,0,1,.959-1.039.981.981,0,0,1,1.039.959l.144,3.6a1,1,0,0,1-.959,1.039Z" style="fill:#9A9A9A" data-original="#5C5C5C" class="active-path" data-old_color="#5C5C5C"></path><path d="M48.235,57.049a1,1,0,0,1-1-.96l-.144-3.6a1,1,0,0,1,2-.08l.144,3.6a1,1,0,0,1-.959,1.039Z" style="fill:#9A9A9A" data-original="#5C5C5C" class="active-path" data-old_color="#5C5C5C"></path><path d="M12.008,16.346a1,1,0,0,1-.968-.753L10.149,12.1a1,1,0,0,1,1.938-.495l.891,3.494a1,1,0,0,1-.722,1.215A.965.965,0,0,1,12.008,16.346Z" style="fill:#9A9A9A" data-original="#5C5C5C" class="active-path" data-old_color="#5C5C5C"></path><path d="M52.881,53.147a1,1,0,0,1-.968-.752L51.022,48.9a1,1,0,0,1,1.938-.494l.891,3.493a1,1,0,0,1-.722,1.216A.963.963,0,0,1,52.881,53.147Z" style="fill:#9A9A9A" data-original="#5C5C5C" class="active-path" data-old_color="#5C5C5C"></path><path d="M8.984,20.866a1,1,0,0,1-.9-.556l-1.6-3.233a1,1,0,0,1,1.793-.887l1.6,3.233a1,1,0,0,1-.9,1.443Z" style="fill:#9A9A9A" data-original="#5C5C5C" class="active-path" data-old_color="#5C5C5C"></path><path d="M56.615,48.366a1,1,0,0,1-.9-.556l-1.6-3.233a1,1,0,0,1,1.793-.887l1.6,3.233a1,1,0,0,1-.9,1.443Z" style="fill:#9A9A9A" data-original="#5C5C5C" class="active-path" data-old_color="#5C5C5C"></path><path d="M6.965,25.917a1,1,0,0,1-.785-.38L3.944,22.708a1,1,0,0,1,1.569-1.24L7.748,24.3a1,1,0,0,1-.783,1.62Z" style="fill:#9A9A9A" data-original="#5C5C5C" class="active-path" data-old_color="#5C5C5C"></path><path d="M59.272,42.912a1,1,0,0,1-.785-.38L56.252,39.7a1,1,0,0,1,1.568-1.24l2.236,2.829a1,1,0,0,1-.784,1.62Z" style="fill:#9A9A9A" data-original="#5C5C5C" class="active-path" data-old_color="#5C5C5C"></path><path d="M6.037,31.276a1,1,0,0,1-.638-.23l-2.774-2.3A1,1,0,1,1,3.9,27.205l2.775,2.3a1,1,0,0,1-.64,1.769Z" style="fill:#9A9A9A" data-original="#5C5C5C" class="active-path" data-old_color="#5C5C5C"></path><path d="M60.735,37.025a.993.993,0,0,1-.637-.23l-2.775-2.3A1,1,0,1,1,58.6,32.954l2.774,2.3a1,1,0,0,1-.64,1.769Z" style="fill:#9A9A9A" data-original="#5C5C5C" class="active-path" data-old_color="#5C5C5C"></path><path d="M6.246,36.712a1.009,1.009,0,0,1-.464-.114L2.59,34.923a1,1,0,1,1,.93-1.772l3.192,1.675a1,1,0,0,1-.466,1.886Z" style="fill:#9A9A9A" data-original="#5C5C5C" class="active-path" data-old_color="#5C5C5C"></path><path d="M60.944,30.963a1.009,1.009,0,0,1-.464-.114l-3.192-1.675a1,1,0,1,1,.93-1.772l3.192,1.675a1,1,0,0,1-.466,1.886Z" style="fill:#9A9A9A" data-original="#5C5C5C" class="active-path" data-old_color="#5C5C5C"></path><path d="M7.583,41.985a.973.973,0,0,1-.271-.037L3.84,40.974a1,1,0,1,1,.541-1.926l3.472.974a1,1,0,0,1-.27,1.963Z" style="fill:#9A9A9A" data-original="#5C5C5C" class="active-path" data-old_color="#5C5C5C"></path><path d="M59.891,24.989a.985.985,0,0,1-.272-.037l-3.472-.974a1,1,0,0,1,.541-1.926l3.472.974a1,1,0,0,1-.269,1.963Z" style="fill:#9A9A9A" data-original="#5C5C5C" class="active-path" data-old_color="#5C5C5C"></path><path d="M9.984,46.866l-.065,0-3.6-.232a1,1,0,0,1,.129-2l3.6.232a1,1,0,0,1-.064,2Z" style="fill:#9A9A9A" data-original="#5C5C5C" class="active-path" data-old_color="#5C5C5C"></path><path d="M57.615,19.366l-.065,0-3.6-.232a1,1,0,0,1,.129-2l3.6.232a1,1,0,0,1-.064,2Z" style="fill:#9A9A9A" data-original="#5C5C5C" class="active-path" data-old_color="#5C5C5C"></path><path d="M9.778,51.662a1,1,0,0,1-.143-1.989l3.568-.522a1,1,0,0,1,.289,1.979l-3.568.521A.906.906,0,0,1,9.778,51.662Z" style="fill:#9A9A9A" data-original="#5C5C5C" class="active-path" data-old_color="#5C5C5C"></path><path d="M50.651,14.859a1,1,0,0,1-.143-1.989l3.568-.521a1,1,0,1,1,.289,1.978l-3.568.522A1.034,1.034,0,0,1,50.651,14.859Z" style="fill:#9A9A9A" data-original="#5C5C5C" class="active-path" data-old_color="#5C5C5C"></path><path d="M14.146,55.874a1,1,0,0,1-.348-1.937l3.381-1.252a1,1,0,1,1,.7,1.875l-3.381,1.252A1.009,1.009,0,0,1,14.146,55.874Z" style="fill:#9A9A9A" data-original="#5C5C5C" class="active-path" data-old_color="#5C5C5C"></path><path d="M46.474,11.378a1,1,0,0,1-.348-1.938l3.381-1.252a1,1,0,1,1,.7,1.875l-3.381,1.252A.988.988,0,0,1,46.474,11.378Z" style="fill:#9A9A9A" data-original="#5C5C5C" class="active-path" data-old_color="#5C5C5C"></path><path d="M19.292,59.086a1,1,0,0,1-.535-1.846l3.048-1.927a1,1,0,0,1,1.068,1.692l-3.048,1.927A1,1,0,0,1,19.292,59.086Z" style="fill:#9A9A9A" data-original="#5C5C5C" class="active-path" data-old_color="#5C5C5C"></path><path d="M41.662,8.841A1,1,0,0,1,41.127,7l3.048-1.927A1,1,0,0,1,45.243,6.76L42.2,8.687A1,1,0,0,1,41.662,8.841Z" style="fill:#9A9A9A" data-original="#5C5C5C" class="active-path" data-old_color="#5C5C5C"></path><path d="M24.992,61.158a1,1,0,0,1-.7-1.716l2.58-2.518a1,1,0,1,1,1.4,1.431L25.69,60.874A1,1,0,0,1,24.992,61.158Z" style="fill:#9A9A9A" data-original="#5C5C5C" class="active-path" data-old_color="#5C5C5C"></path><path d="M36.428,7.36a1,1,0,0,1-.7-1.715L38.31,3.126a1,1,0,0,1,1.4,1.432l-2.58,2.518A.994.994,0,0,1,36.428,7.36Z" style="fill:#9A9A9A" data-original="#5C5C5C" class="active-path" data-old_color="#5C5C5C"></path><path d="M32,2A30,30,0,1,0,62,32,30.034,30.034,0,0,0,32,2ZM55.783,17.246l-1.7-.11-.129,2,3,.194a27.951,27.951,0,0,1,1.389,3.19l-1.656-.464-.541,1.926,2.908.816a27.741,27.741,0,0,1,.68,3.4l-1.517-.8-.93,1.772,2.676,1.4Q60,31.285,60,32c0,.689-.034,1.37-.083,2.046L58.6,32.954l-1.278,1.539,2.325,1.929a27.766,27.766,0,0,1-.764,3.387L57.82,38.463,56.252,39.7l1.868,2.365a27.846,27.846,0,0,1-1.448,3.158l-.759-1.536-1.793.887,1.331,2.694a28.3,28.3,0,0,1-2.071,2.782l-.42-1.646-1.938.494.743,2.912a28.362,28.362,0,0,1-2.606,2.29l-.068-1.7-2,.08.12,3a27.967,27.967,0,0,1-3.028,1.718l.289-1.692L42.5,55.178,42,58.149a27.949,27.949,0,0,1-3.317,1.04l.634-1.6-1.859-.739-1.116,2.809a28.25,28.25,0,0,1-3.455.315l.949-1.423-1.664-1.11-1.675,2.513a27.915,27.915,0,0,1-3.448-.406l1.226-1.2-1.4-1.431-2.16,2.109a27.883,27.883,0,0,1-3.289-1.113l1.448-.915-1.068-1.692-2.544,1.609a28.1,28.1,0,0,1-2.988-1.769l1.6-.593-.7-1.875-2.816,1.042a28.21,28.21,0,0,1-2.548-2.352l1.677-.245L13.2,49.151l-2.97.434a28.005,28.005,0,0,1-2.016-2.831l1.7.11.129-2-3-.194a27.951,27.951,0,0,1-1.389-3.19l1.656.464.541-1.926-2.908-.816a27.741,27.741,0,0,1-.68-3.4l1.517.8.93-1.772-2.676-1.4Q4,32.716,4,32c0-.689.034-1.37.083-2.046L5.4,31.046l1.278-1.539L4.352,27.578a27.766,27.766,0,0,1,.764-3.387L6.18,25.537,7.748,24.3,5.88,21.932a27.846,27.846,0,0,1,1.448-3.158l.759,1.536,1.793-.887L8.549,16.729a28.3,28.3,0,0,1,2.071-2.782l.42,1.646,1.938-.494-.743-2.912A28.362,28.362,0,0,1,14.841,9.9l.068,1.7,2-.08-.12-3a27.967,27.967,0,0,1,3.028-1.718l-.289,1.692,1.971.336L22,5.851a27.949,27.949,0,0,1,3.317-1.04l-.634,1.6,1.859.739,1.116-2.809a28.25,28.25,0,0,1,3.455-.315l-.949,1.423,1.664,1.11,1.675-2.513a27.915,27.915,0,0,1,3.448.406l-1.226,1.2,1.4,1.431,2.16-2.109A27.883,27.883,0,0,1,42.575,6.08L41.127,7,42.2,8.687l2.544-1.609a28.1,28.1,0,0,1,2.988,1.769l-1.6.593.7,1.875,2.816-1.042a28.21,28.21,0,0,1,2.548,2.352l-1.677.245.289,1.979,2.97-.434A28.005,28.005,0,0,1,55.783,17.246Z" data-original="#000000" class="" data-old_color="#000000" style="fill:#000000"></path><path d="M32,8A24,24,0,1,0,56,32,24.028,24.028,0,0,0,32,8Zm1,2.025a21.837,21.837,0,0,1,9.118,2.45L33.062,28.161c-.021-.006-.041-.014-.062-.019Zm-2,0V28.142c-.021,0-.041.013-.062.019L21.882,12.475A21.837,21.837,0,0,1,31,10.025ZM20.152,13.478,29.2,29.15l-.05.05L13.478,20.152A22.172,22.172,0,0,1,20.152,13.478Zm-7.677,8.4,15.686,9.056c-.006.021-.014.041-.019.062H10.025A21.837,21.837,0,0,1,12.475,21.882ZM10.025,33H28.142c0,.021.013.041.019.062L12.475,42.118A21.837,21.837,0,0,1,10.025,33Zm3.453,10.848L29.15,34.8l.05.05L20.152,50.522A22.172,22.172,0,0,1,13.478,43.848ZM31,53.975a21.837,21.837,0,0,1-9.118-2.45l9.056-15.686c.021.006.041.014.062.019ZM30,32a2,2,0,1,1,2,2A2,2,0,0,1,30,32Zm3,21.975V35.858c.021,0,.041-.013.062-.019l9.056,15.686A21.837,21.837,0,0,1,33,53.975Zm15.239-7.15-3.532-3.532-1.414,1.414,3.532,3.532a22.038,22.038,0,0,1-2.977,2.283L34.8,34.85l.05-.05,15.672,9.048A22.038,22.038,0,0,1,48.239,46.825Zm3.286-4.707L35.839,33.062c.006-.021.014-.041.019-.062H53.975A21.837,21.837,0,0,1,51.525,42.118ZM53.975,31H35.858c0-.021-.013-.041-.019-.062l15.686-9.056A21.837,21.837,0,0,1,53.975,31ZM34.85,29.2l-.05-.05,9.048-15.672a22.172,22.172,0,0,1,6.674,6.674Z" data-original="#000000" class="" data-old_color="#000000" style="fill:#000000"></path></g></g> </svg>