<svg id="Capa_1" enable-background="new 0 0 497 497" height="512" viewBox="0 0 497 497" width="512" xmlns="http://www.w3.org/2000/svg" class=""><g><path d="m205.654 101.087h-30l15 30h22.5c4.142 0 7.5-3.358 7.5-7.5v-7.5c0-8.285-6.716-15-15-15z" fill="#a2c35e" data-original="#A2C35E"></path><path d="m175.654 101.087h-43.35c-8.284 0-15 6.716-15 15s6.716 15 15 15h58.35s0-6.716 0-15-6.716-15-15-15z" fill="#b8d47d" data-original="#B8D47D"></path><path d="m98.5 221.423c52.83 0 68.5 44.1 68.5 98.5 0-37.84-30.67-68.5-68.5-68.5s-68.5 30.66-68.5 68.5c0 37.83 30.67 68.5 68.5 68.5s68.5-30.67 68.5-68.5c0 54.4-15.67 98.49-68.5 98.49-54.4 0-98.5-44.09-98.5-98.49s44.1-98.5 98.5-98.5z" fill="#576267" data-original="#576267"></path><path d="m98.5 221.423c54.4 0 98.5 44.1 98.5 98.5s-44.1 98.49-98.5 98.49c37.83 0 68.5-44.09 68.5-98.49s-30.67-98.5-68.5-98.5z" fill="#475055" data-original="#475055"></path><path d="m398.5 221.423c52.83 0 68.5 44.1 68.5 98.5 0-37.84-30.67-68.5-68.5-68.5s-68.5 30.66-68.5 68.5c0 37.83 30.67 68.5 68.5 68.5s68.5-30.67 68.5-68.5c0 54.4-15.67 98.49-68.5 98.49-54.4 0-98.5-44.09-98.5-98.49s44.1-98.5 98.5-98.5z" fill="#576267" data-original="#576267"></path><path d="m398.5 221.423c54.4 0 98.5 44.1 98.5 98.5s-44.1 98.49-98.5 98.49c37.83 0 68.5-44.09 68.5-98.49s-30.67-98.5-68.5-98.5z" fill="#475055" data-original="#475055"></path><path d="m383.253 108.587c12.406 0 22.5-10.093 22.5-22.5 0-4.142-3.357-7.5-7.5-7.5s-7.5 3.358-7.5 7.5c0 4.136-3.364 7.5-7.5 7.5h-60c-4.143 0-7.5 3.358-7.5 7.5v7.5z" fill="#373e42" data-original="#373E42"></path><path d="m330.753 108.587h-15v22.5l7.5 15 7.5-15z" fill="#67747a" data-original="#67747A" class=""></path><path d="m405.278 316.708-74.525-157.309v-28.312h-15v26.367l-65.376 51.65c-3.955 3.125-8.908 4.845-13.948 4.845h-29.833l-26.565-56.073c-1.774-3.744-6.246-5.34-9.989-3.567s-5.34 6.246-3.567 9.989l70.173 148.122h-138.148c-4.143 0-7.5 3.358-7.5 7.5s3.357 7.5 7.5 7.5h150c2.905 0 5.549-1.678 6.786-4.306l67.989-144.461 68.446 144.478c1.282 2.707 3.976 4.291 6.783 4.291 1.076 0 2.169-.233 3.206-.724 3.744-1.775 5.341-6.247 3.568-9.99zm-156.8-14.355-34.776-73.405h22.726c8.399 0 16.656-2.868 23.247-8.075l43.22-34.146z" fill="#f9d103" data-original="#F9D103" class="active-path" data-old_color="#f9d103" style="fill:#3DCA2D"></path></g> </svg>