<svg xmlns="http://www.w3.org/2000/svg" viewBox="0 0 64 64" width="512" height="512" class=""><g><g id="filled_outline" data-name="filled outline"><path d="M56,7V5H50V3H43V5H36V23l-.189-.108L44.2,33.658A6,6,0,0,0,48.954,36H59.091l1.12-4.108A22.364,22.364,0,0,0,61,26V7Z" style="fill:#3DCA2D" data-original="#4398D1" class="" data-old_color="#4398D1"></path><path d="M58,7C54.75,17.058,47.364,24.742,40.8,29.3l3.4,4.363A6,6,0,0,0,48.954,36H59.091l1.12-4.108A22.364,22.364,0,0,0,61,26V7Z" style="fill:#109A00" data-original="#388DC7" class="" data-old_color="#388DC7"></path><path d="M35,40l-7,4V26H21V24H14v2H8v2H3V47a22.364,22.364,0,0,0,.789,5.889L6,61H24l4-5L38,46Z" style="fill:#616161" data-original="#616161" class=""></path><path d="M28,30.846l-25,4.4v6.62l9.649-3.147a1.6,1.6,0,0,1,1.978.833,1.557,1.557,0,0,1-.709,2L3,47H3a22.359,22.359,0,0,0,.789,5.889l.679,2.491L28,34.531Z" style="fill:#4d4d4d" data-original="#4D4D4D" class=""></path><path d="M16,52.024V52.4A4.6,4.6,0,0,0,20.6,57h0A4.6,4.6,0,0,0,25,53.752L28,44V39L17.492,48.632A4.6,4.6,0,0,0,16,52.024Z" style="fill:#4d4d4d" data-original="#4D4D4D" class=""></path><rect x="56" y="15" width="2" height="2" style="fill:#DBA64B" data-original="#4BA1DB" class="active-path" data-old_color="#4BA1DB"></rect><rect x="56" y="19" width="2" height="8" style="fill:#DBA64B" data-original="#4BA1DB" class="active-path" data-old_color="#4BA1DB"></rect><polygon points="59 36 48.954 36 36.8 36 40 40 58 40 59.091 36 59 36" style="fill:#616161" data-original="#616161" class=""></polygon><path d="M44.2,33.658,35.811,22.892,29,19l-3,6L36,35l.8,1H48.954A6,6,0,0,1,44.2,33.658Z" style="fill:#616161" data-original="#616161" class=""></path><polygon points="4.636 56 5.182 58 26.4 58 28 56 4.636 56" style="fill:#4d4d4d" data-original="#4D4D4D" class=""></polygon><polygon points="36.8 36 37.6 37 58.818 37 59.091 36 59.364 35 36 35 36.8 36" style="fill:#4d4d4d" data-original="#4D4D4D" class=""></polygon><path d="M61,6H57V5a1,1,0,0,0-1-1H51V3a1,1,0,0,0-1-1H43a1,1,0,0,0-1,1V4H36a1,1,0,0,0-1,1V21.277l-5.5-3.145a1,1,0,0,0-1.391.421l-3,6a.985.985,0,0,0-.093.447H22V24a1,1,0,0,0-1-1H14a1,1,0,0,0-1,1v1H8a1,1,0,0,0-1,1v1H3a1,1,0,0,0-1,1V47q0,.78.052,1.556a23.43,23.43,0,0,0,.772,4.6l.158.577L3.5,55.646v0l1.531,5.614A1,1,0,0,0,6,62H24a1,1,0,0,0,.781-.375l3.965-4.957,9.961-9.961a1,1,0,0,0,.188-1.154l-3-6a1,1,0,0,0-1.391-.421L29,42.277V29.414l6.254,6.254,3.965,4.957A1,1,0,0,0,40,41H58a1,1,0,0,0,.965-.737l2.21-8.111A23.5,23.5,0,0,0,62,26V7A1,1,0,0,0,61,6ZM4,29H7v2a1,1,0,0,0,2,0V27h4v3a1,1,0,0,0,2,0V25h5v4a1,1,0,0,0,2,0V27h5v3.006L4,34.052ZM4,42.589l8.959-2.922a.609.609,0,0,1,.746.27.551.551,0,0,1-.234.715L4,45.385ZM5.01,53.567l-.256-.939c-.119-.435-.222-.874-.312-1.316-.03-.143-.051-.288-.078-.432-.055-.3-.109-.6-.151-.9-.024-.174-.042-.348-.062-.522-.032-.274-.061-.549-.083-.824-.014-.185-.023-.369-.032-.554-.008-.157-.011-.313-.016-.47l10.36-5.176a2.549,2.549,0,0,0,1.168-3.273,2.6,2.6,0,0,0-3.208-1.4L4,40.485v-4.4l23-4.045v2.044ZM5.673,56,5.6,55.719,27,36.753V38.56L16.816,47.9A5.615,5.615,0,0,0,15,52.024V52.4A5.575,5.575,0,0,0,16.318,56ZM27,41.273v2.576l-2.957,9.609A3.6,3.6,0,0,1,17,52.4v-.374a3.608,3.608,0,0,1,1.168-2.654ZM23.52,60H6.764l-.546-2h18.9ZM34.578,41.393l2.2,4.41-9.49,9.49c-.026.026-.051.054-.074.082l-.5.625H24.876a5.6,5.6,0,0,0,1.079-1.954l2.885-9.374Zm2.2-7.018c-.023-.028-.048-.056-.074-.082L29,26.586V26a1,1,0,0,0-1-1h-.586l-.2-.2,2.205-4.41,5.907,3.375,8.076,10.5a6.885,6.885,0,0,0,.663.732H37.281ZM57.236,39H40.48l-1.6-2h18.9ZM60,26a21.508,21.508,0,0,1-.755,5.627L58.326,35H48.954a5.028,5.028,0,0,1-3.963-1.952L37,22.659V6h5V8h2V4h5V9h2V6h4v4h2V8h3Z" data-original="#000000" class="" style="fill:#000000"></path><rect x="56" y="15" width="2" height="2" data-original="#000000" class="" style="fill:#000000"></rect><rect x="56" y="19" width="2" height="8" data-original="#000000" class="" style="fill:#000000"></rect></g></g> </svg>